<?xml version="1.0" standalone="no"?>
<!DOCTYPE svg PUBLIC "-//W3C//DTD SVG 20010904//EN"
 "http://www.w3.org/TR/2001/REC-SVG-20010904/DTD/svg10.dtd">
<svg version="1.0" xmlns="http://www.w3.org/2000/svg"
 width="644.000000pt" height="644.000000pt" viewBox="0 0 644.000000 644.000000"
 preserveAspectRatio="xMidYMid meet">
<metadata>
Created by potrace 1.11, written by Peter Selinger 2001-2013
</metadata>
<g transform="translate(0.000000,644.000000) scale(0.100000,-0.100000)"
fill="#000000" stroke="none">
<path d="M2850 6424 c-618 -74 -1178 -310 -1665 -700 -141 -114 -355 -328
-469 -469 -395 -493 -629 -1052 -701 -1680 -20 -171 -20 -539 0 -710 86 -743
402 -1403 925 -1925 522 -523 1182 -839 1925 -925 171 -20 539 -20 710 0 743
86 1403 402 1925 925 523 522 839 1182 925 1925 20 171 20 539 0 710 -86 743
-402 1403 -925 1925 -522 522 -1182 839 -1925 925 -163 19 -565 18 -725 -1z
m684 -439 c528 -62 1019 -267 1436 -601 109 -88 326 -305 414 -414 406 -508
616 -1105 616 -1750 0 -498 -123 -964 -367 -1389 -46 -80 -179 -273 -250 -361
-87 -109 -304 -326 -413 -413 -88 -71 -281 -204 -361 -250 -425 -244 -891
-367 -1389 -367 -498 0 -964 123 -1389 367 -80 46 -273 179 -361 250 -109 86
-326 303 -414 413 -406 508 -616 1105 -616 1750 0 645 210 1242 616 1750 88
109 305 326 414 414 414 331 904 537 1430 601 150 18 478 18 634 0z"/>
<path d="M3415 4225 c-238 -64 -570 -264 -793 -479 -244 -234 -374 -492 -388
-766 -12 -264 -50 -349 -153 -350 -38 0 -102 16 -286 70 -242 71 -384 93 -605
94 -168 1 -221 -7 -330 -46 -73 -26 -128 -65 -164 -116 -25 -35 -31 -55 -34
-111 -5 -81 9 -114 67 -160 107 -85 336 -129 786 -151 116 -5 710 -10 1332
-10 l1121 0 27 32 c21 25 26 39 22 65 -7 43 -85 162 -153 233 -30 31 -51 59
-48 62 3 3 16 36 29 73 l23 67 16 -50 c9 -27 30 -70 46 -95 56 -89 124 -120
400 -186 232 -55 320 -91 409 -166 50 -41 74 -43 155 -15 166 57 213 117 171
217 -9 20 -13 43 -11 50 7 18 141 17 226 -2 125 -28 201 -17 266 39 24 20 55
36 80 40 50 9 93 50 126 121 20 44 23 65 23 185 0 123 -2 140 -26 198 -43 102
-89 170 -169 249 -135 135 -286 224 -580 341 -242 97 -328 136 -695 319 -325
161 -473 221 -618 248 -96 18 -205 18 -272 0z"/>
</g>
</svg>
